<?xml version="1.0" standalone="no"?>
<!DOCTYPE svg PUBLIC "-//W3C//DTD SVG 20010904//EN"
 "http://www.w3.org/TR/2001/REC-SVG-20010904/DTD/svg10.dtd">
<svg version="1.0" xmlns="http://www.w3.org/2000/svg"
 width="300.000000pt" height="300.000000pt" viewBox="0 0 300.000000 300.000000"
 preserveAspectRatio="xMidYMid meet">
<metadata>
Created by potrace 1.14, written by Peter Selinger 2001-2017
</metadata>
<g transform="translate(0.000000,300.000000) scale(0.100000,-0.100000)"
fill="#000000" stroke="none">
<path d="M912 2630 c-102 -27 -174 -71 -263 -159 -79 -80 -119 -146 -144 -242
-22 -83 -22 -1329 0 -1414 49 -188 221 -354 410 -396 46 -10 188 -14 595 -14
585 0 580 0 705 62 124 61 225 177 276 314 l23 64 4 600 c3 633 -2 754 -39
847 -29 74 -100 169 -167 224 -65 54 -173 107 -250 123 -35 7 -225 11 -565 10
-472 0 -518 -2 -585 -19z m1143 -154 c28 -7 69 -23 92 -34 53 -27 137 -111
163 -162 49 -96 50 -114 50 -761 0 -567 -1 -611 -19 -668 -38 -121 -112 -209
-219 -259 l-57 -27 -519 -5 c-372 -4 -536 -2 -576 7 -126 25 -223 102 -282
221 l-33 67 0 670 0 670 33 67 c51 105 146 182 262 214 67 19 1036 19 1105 0z"/>
<path d="M1491 2293 c-19 -16 -21 -30 -23 -153 l-3 -135 -147 -1 c-105 0 -151
-4 -162 -13 -19 -16 -21 -66 -3 -78 6 -4 80 -10 162 -13 l150 -5 3 -289 c2
-245 0 -287 -12 -283 -8 3 -41 11 -74 17 -125 25 -279 -28 -372 -126 -74 -78
-93 -128 -88 -224 5 -91 27 -133 95 -185 60 -46 108 -58 212 -53 69 3 98 9
144 32 75 36 146 107 183 181 l29 60 3 358 c2 238 7 357 14 357 5 0 46 -19 89
-41 174 -91 229 -221 153 -364 -29 -55 -31 -91 -5 -100 28 -8 47 3 76 44 42
61 65 134 65 205 0 157 -80 254 -298 361 -45 22 -82 43 -82 48 0 4 63 7 140 7
137 0 140 0 156 25 27 41 10 62 -87 110 -101 50 -139 74 -186 119 -27 25 -33
37 -33 72 0 34 -5 47 -26 63 -32 26 -46 26 -73 4z m127 -281 c2 -7 -2 -10 -12
-6 -9 3 -16 11 -16 16 0 13 23 5 28 -10z"/>
</g>
</svg>
